<?xml version="1.0" encoding="UTF-8" standalone="no"?>
<!DOCTYPE svg PUBLIC "-//W3C//DTD SVG 1.1//EN" "http://www.w3.org/Graphics/SVG/1.1/DTD/svg11.dtd">
<svg width="100%" height="100%" viewBox="0 0 500 150" version="1.1" xmlns="http://www.w3.org/2000/svg" xmlns:xlink="http://www.w3.org/1999/xlink" xml:space="preserve" xmlns:serif="http://www.serif.com/" style="fill-rule:evenodd;clip-rule:evenodd;stroke-linejoin:round;stroke-miterlimit:2;">
    <g transform="matrix(1,0,0,1,-410,0)">
        <g id="_404" serif:id="404" transform="matrix(1.38889,0,0,0.416667,-159.444,0)">
            <rect x="410" y="0" width="360" height="360" style="fill:none;"/>
            <g transform="matrix(0.647926,0,0,2.15975,134.2,-21.2089)">
                <g transform="matrix(154.714,0,0,154.714,468.771,144.684)">
                    <path d="M0.569,-0L0.569,-0.131L0.624,-0.131L0.642,-0.3L0.569,-0.3L0.569,-0.662L0.242,-0.662L0.026,-0.28L0.026,-0.131L0.319,-0.131L0.319,-0L0.569,-0ZM0.319,-0.3L0.246,-0.3C0.277,-0.364 0.307,-0.429 0.323,-0.473C0.32,-0.427 0.319,-0.375 0.319,-0.338L0.319,-0.3Z" style="fill:white;fill-rule:nonzero;"/>
                </g>
            </g>
            <g transform="matrix(0.647926,0,0,2.15975,378.247,-21.2089)">
                <g transform="matrix(154.714,0,0,154.714,468.771,144.684)">
                    <path d="M0.569,-0L0.569,-0.131L0.624,-0.131L0.642,-0.3L0.569,-0.3L0.569,-0.662L0.242,-0.662L0.026,-0.28L0.026,-0.131L0.319,-0.131L0.319,-0L0.569,-0ZM0.319,-0.3L0.246,-0.3C0.277,-0.364 0.307,-0.429 0.323,-0.473C0.32,-0.427 0.319,-0.375 0.319,-0.338L0.319,-0.3Z" style="fill:white;fill-rule:nonzero;"/>
                </g>
            </g>
            <g transform="matrix(0.72,0,0,2.37083,111.441,2.13212)">
                <path d="M778.708,49.533L778.708,101.08C778.708,115.305 767.3,126.854 753.248,126.854L576.081,126.854C562.029,126.854 550.621,115.305 550.621,101.08L550.621,49.533C550.621,35.309 562.029,23.76 576.081,23.76L753.248,23.76C767.3,23.76 778.708,35.309 778.708,49.533ZM749.283,56.75C749.283,46.196 740.818,37.627 730.392,37.627L598.938,37.627C588.512,37.627 580.047,46.196 580.047,56.75L580.047,94.997C580.047,105.552 588.512,114.121 598.938,114.121L730.392,114.121C740.818,114.121 749.283,105.552 749.283,94.997L749.283,56.75Z" style="fill:white;"/>
            </g>
        </g>
    </g>
</svg>
