<?xml version="1.0" encoding="UTF-8" standalone="no"?>
<!DOCTYPE svg PUBLIC "-//W3C//DTD SVG 1.1//EN" "http://www.w3.org/Graphics/SVG/1.1/DTD/svg11.dtd">
<svg width="100%" height="100%" viewBox="0 0 360 361" version="1.1" xmlns="http://www.w3.org/2000/svg" xmlns:xlink="http://www.w3.org/1999/xlink" xml:space="preserve" xmlns:serif="http://www.serif.com/" style="fill-rule:evenodd;clip-rule:evenodd;stroke-linecap:round;stroke-linejoin:round;stroke-miterlimit:1.5;">
    <g transform="matrix(1,0,0,1,0,-134)">
        <g id="Image-Select-Icon" serif:id="Image Select Icon" transform="matrix(0.333333,0,0,0.333333,0,134.586)">
            <rect x="0" y="0" width="1080" height="1080" style="fill:none;"/>
            <g transform="matrix(1,0,0,1,-60.8005,-81.416)">
                <g transform="matrix(5.12079,0,0,5.12079,-748.93,-705.604)">
                    <path d="M303.64,339.467L193.218,339.467C178.85,339.467 167.185,327.802 167.185,313.435L167.185,188.783C167.185,174.415 178.85,162.75 193.218,162.75L317.869,162.75C332.237,162.75 343.902,174.415 343.902,188.783L343.902,299.205" style="fill:none;stroke:white;stroke-width:14.64px;"/>
                </g>
                <g transform="matrix(1.75759,1.75759,-1.75759,1.75759,991.5,386.889)">
                    <path d="M176.366,212.481C170.464,218.383 160.881,218.383 154.979,212.481C149.077,206.579 149.077,196.996 154.979,191.094L168.209,177.864L151.881,161.536C145.979,155.635 145.979,146.052 151.881,140.15C157.782,134.248 167.365,134.248 173.267,140.15L189.595,156.478L202.825,143.248C208.727,137.346 218.31,137.346 224.212,143.248C230.113,149.15 230.113,158.733 224.212,164.635L210.982,177.865L224.212,191.094C230.113,196.996 230.113,206.579 224.212,212.481C218.31,218.383 208.727,218.383 202.825,212.481L189.595,199.251L176.366,212.481Z" style="fill:white;"/>
                </g>
            </g>
            <g transform="matrix(1.3886,0,0,1.3886,-263.226,-217.92)">
                <g transform="matrix(3,0,0,3,0,0)">
                    <path d="M260.191,249.315L260.191,197.141C260.191,197.141 230.595,168.228 213.326,172.061C196.057,175.895 156.578,220.141 156.578,220.141C156.578,220.141 134.649,190.5 126.167,186.666C119.178,183.508 105.683,197.141 105.683,197.141L105.683,249.315L260.191,249.315Z" style="fill:white;stroke:white;stroke-width:9px;"/>
                </g>
                <g transform="matrix(3,0,0,3,98.8468,-121.247)">
                    <circle cx="122.563" cy="163.245" r="23.422" style="fill:white;stroke:white;stroke-width:9px;"/>
                </g>
            </g>
        </g>
    </g>
</svg>
