<?xml version="1.0" encoding="utf-8"?>
<!-- Generator: Adobe Illustrator 22.1.0, SVG Export Plug-In . SVG Version: 6.00 Build 0)  -->
<svg version="1.1" id="Layer_1" xmlns="http://www.w3.org/2000/svg" xmlns:xlink="http://www.w3.org/1999/xlink" x="0px" y="0px"
	 viewBox="0 0 259.4 120.5" style="enable-background:new 0 0 259.4 120.5;" xml:space="preserve">
<style type="text/css">
	.st0{fill-rule:evenodd;clip-rule:evenodd;fill:#502C1E;}
	.st1{fill-rule:evenodd;clip-rule:evenodd;fill:#C9A867;}
	.st2{clip-path:url(#SVGID_2_);fill:url(#SVGID_3_);}
	.st3{fill:#502C1E;}
	.st4{fill-rule:evenodd;clip-rule:evenodd;fill:#FFFFFF;}
</style>
<g>
	<path class="st0" d="M15.2,96.6l0.7,0.3c23.5,10.2,37.8,14.6,63,19.1c19.6,3.5,33.5,4.2,50.8,4.5h0c17.3-0.3,31.2-0.9,50.8-4.5
		c25.2-4.5,39.5-8.9,63-19.1l0.7-0.3l15.1-72.9l-1.3-0.5C210.2,6.2,181,0.7,129.8,0h0C78.6,0.7,49.2,6.2,1.3,23.3L0,23.7L15.2,96.6z
		"/>
	<path class="st0" d="M129.8,0.9c25.5,0.3,45.6,1.9,65.2,5.5c19.6,3.6,38.9,9.2,62.8,17.8l0.6,0.2L243.5,96l-0.3,0.1
		c-11.7,5.1-21.2,8.7-30.8,11.6c-9.6,2.9-19.5,5.1-32,7.4c-19.5,3.5-33.4,4.2-50.6,4.5l0,0c-17.3-0.3-31.2-0.9-50.6-4.5
		c-12.6-2.3-22.4-4.5-32-7.4s-19-6.5-30.8-11.6L16,96L1,24.3l0.6-0.2C25.5,15.6,44.8,9.9,64.5,6.3C84.2,2.7,104.3,1.2,129.8,0.9
		L129.8,0.9z"/>
	<path class="st1" d="M129.8,2.3c25.3,0.3,45.1,1.8,64.4,5.3c19.4,3.5,38.3,9,61.8,17.4c0.4,0.1,0.7,0.6,0.6,1l-14.2,68.6
		c-0.1,0.3-0.2,0.5-0.5,0.6c-11.5,5-20.7,8.5-30.2,11.4c-9.5,2.9-19.2,5-31.6,7.3c-19.4,3.5-33.2,4.2-50.4,4.4l0,0l0,0
		c-17.3-0.3-31-0.9-50.4-4.4c-12.4-2.2-22.1-4.4-31.6-7.3c-9.5-2.9-18.7-6.4-30.2-11.4c-0.3-0.1-0.5-0.3-0.5-0.6L2.7,26
		c-0.1-0.4,0.2-0.9,0.6-1c23.5-8.4,42.5-13.9,61.9-17.4C84.7,4.1,104.5,2.6,129.8,2.3L129.8,2.3z"/>
	<path class="st1" d="M255.8,25.8l-14.2,68.6c-23,9.9-36.8,14.1-61.6,18.6c-19.4,3.5-33,4.2-50.3,4.4c-17.2-0.3-30.9-0.9-50.3-4.4
		c-24.8-4.5-38.7-8.6-61.6-18.6L3.6,25.8c47-16.7,75.7-22,126.2-22.6C180.3,3.8,208.8,9.1,255.8,25.8z"/>
	<g>
		<defs>
			<path id="SVGID_1_" d="M16.2,55.2c20.4,8.9,46.2,19.5,68.1,23.4c17,3.1,32.5,5.9,53.9,5.9c15.1,0,27.1-3.6,44.1-6.7
				c21.9-4,41.3-11.5,61.7-21l5.8-26.2c-41.4-16.5-57.1-18.9-108.2-22.1h-3.5C86.3,8.5,51.2,13,9.3,30.1L16.2,55.2z"/>
		</defs>
		<clipPath id="SVGID_2_">
			<use xlink:href="#SVGID_1_"  style="overflow:visible;"/>
		</clipPath>
		
			<radialGradient id="SVGID_3_" cx="3877.5349" cy="1044.0394" r="1.5524" gradientTransform="matrix(-121.5683 0 0 -122.5316 471518.875 127828.1484)" gradientUnits="userSpaceOnUse">
			<stop  offset="0" style="stop-color:#F7F5F5"/>
			<stop  offset="0.614" style="stop-color:#F7F5F5"/>
			<stop  offset="1" style="stop-color:#C9A867"/>
		</radialGradient>
		<rect x="9.3" y="8.5" class="st2" width="240.5" height="76"/>
	</g>
	<g>
		<path class="st3" d="M43.1,29.7c0.3,1.3,1.6,2,2.9,1.7c1.3-0.3,2.2-1.5,1.9-2.8c-0.2-1-1.5-1.7-2.9-1.4
			C43.8,27.5,42.9,28.7,43.1,29.7z M50.2,28c0.6,2.4-1,4.6-3.7,5.2c-2.7,0.6-5.1-0.6-5.7-3c-0.5-2.3,1.4-4.4,3.8-5
			C47.1,24.7,49.7,25.7,50.2,28z"/>
		<path class="st3" d="M53.8,27l0.2,0c0.7-0.1,1.5-0.4,1.4-1.3c-0.2-0.8-1-0.8-1.7-0.6l-0.2,0L53.8,27z M59.5,30.2l-2.8,0.6
			l-2.7-2.5l0,0l0.6,2.9l-2.2,0.5l-1.5-7.5l3.3-0.7c1.7-0.3,3.1,0.1,3.4,1.7c0.2,1-0.3,2.1-1.5,2.5L59.5,30.2z"/>
		<polygon class="st3" points="62.6,29.6 60.4,30 59,22.5 61.3,22.1 		"/>
		<path class="st3" d="M72.2,23.7c0.2,1.1,0.2,2.1-0.4,3.1c-0.7,1.2-1.9,1.8-3.3,2.1c-2.7,0.4-4.9-0.9-5.2-3.2
			c-0.4-2.5,1.2-4.4,4-4.8c1.8-0.3,3.3,0.2,4.2,1.5l-2,1.1c-0.4-0.7-1.2-1-2.1-0.9c-1.5,0.2-2,1.6-1.9,2.8c0.2,1.2,1.2,2.2,2.7,2
			c1-0.2,1.6-0.7,1.6-1.6L68,25.9l-0.2-1.5L72.2,23.7z"/>
		<polygon class="st3" points="76.5,27.4 74.2,27.7 73.2,20.2 75.4,19.8 		"/>
		<polygon class="st3" points="77.3,19.6 79.5,19.3 84.2,23.4 84.2,23.4 83.7,18.8 85.9,18.5 86.8,26.1 84.6,26.4 79.9,22.2 
			79.9,22.2 80.4,26.9 78.2,27.2 		"/>
		<path class="st3" d="M91.9,20.3L91.9,20.3l-0.7,2.5l1.9-0.2L91.9,20.3z M90.7,24.4l-0.5,1.4L87.8,26l2.6-7.9l2.5-0.2l4,7.3
			l-2.4,0.2l-0.7-1.3L90.7,24.4z"/>
		<polygon class="st3" points="100,23.3 102.7,23 102.8,24.7 97.8,25.1 97.3,17.5 99.5,17.3 		"/>
		<path class="st3" d="M111.6,18.9L111.6,18.9l-0.8,2.5l1.9-0.1L111.6,18.9z M110.2,23l-0.5,1.4l-2.4,0.1l3-7.8l2.5-0.1l3.6,7.5
			l-2.4,0.1l-0.6-1.3L110.2,23z"/>
		<polygon class="st3" points="118.1,16.3 120.3,16.2 122.2,20.3 124,16.1 126.3,16.1 127.7,23.7 125.5,23.8 124.7,19.4 124.7,19.4 
			122.7,23.8 121.8,23.9 119.7,19.5 119.7,19.5 119.1,23.9 116.8,24 		"/>
		<polygon class="st3" points="131.2,17.7 131.2,19 133.8,19 133.8,20.7 131.2,20.7 131.2,22 133.9,22 133.9,23.7 129,23.7 
			128.9,16.1 133.9,16 133.9,17.7 		"/>
		<path class="st3" d="M137.9,19.5l0.2,0c0.7,0,1.6-0.1,1.6-0.9c0-0.8-0.8-1-1.6-1l-0.2,0L137.9,19.5z M142.9,23.8l-2.8,0l-2.1-3h0
			l0,2.9l-2.3,0l0.1-7.7l3.4,0c1.7,0,3,0.8,3,2.4c0,1.1-0.7,2-1.9,2.1L142.9,23.8z"/>
		
			<rect x="141.2" y="18.9" transform="matrix(2.556528e-02 -0.9997 0.9997 2.556528e-02 121.2514 164.4648)" class="st3" width="7.7" height="2.3"/>
		<path class="st3" d="M154.2,19.1c-0.4-0.6-1.2-0.9-2-0.9c-1.4-0.1-2.4,0.8-2.4,2c0,1.2,0.9,2.1,2.3,2.2c0.7,0,1.5-0.3,2-0.7
			L154,24c-0.8,0.2-1.3,0.3-2,0.3c-1.2,0-2.4-0.5-3.2-1.3c-0.9-0.8-1.3-1.8-1.3-2.9c0-1,0.5-2,1.4-2.7c0.9-0.7,2.1-1.2,3.4-1.1
			c0.7,0,1.4,0.2,2.1,0.5L154.2,19.1z"/>
		<path class="st3" d="M159.8,19.2L159.8,19.2l-1.1,2.4l1.9,0.1L159.8,19.2z M158,23.1l-0.7,1.3l-2.4-0.1l3.8-7.4l2.5,0.2l2.8,7.8
			l-2.4-0.1l-0.5-1.4L158,23.1z"/>
		<polygon class="st3" points="165.6,17.2 167.9,17.4 171.6,22.4 171.6,22.4 172,17.8 174.3,18 173.6,25.6 171.4,25.4 167.6,20.4 
			167.6,20.4 167.2,25 164.9,24.8 		"/>
		<polygon class="st3" points="183,26.7 180.8,26.4 181.5,20.5 179.6,20.3 179.8,18.6 185.8,19.3 185.6,21 183.7,20.8 		"/>
		<path class="st3" d="M190.5,22.4L190.5,22.4l-1.3,2.3L191,25L190.5,22.4z M188.3,26.1l-0.8,1.2l-2.4-0.4l4.5-7.1l2.5,0.4l2.1,8.1
			l-2.4-0.4l-0.4-1.4L188.3,26.1z"/>
		<path class="st3" d="M200.8,23.8c-0.4-0.4-0.8-0.7-1.4-0.8c-0.4-0.1-1,0-1.1,0.5c-0.1,0.4,0.5,0.7,0.9,0.9l0.5,0.3
			c1.1,0.5,2,1.2,1.8,2.4c-0.1,0.8-0.5,1.5-1.3,1.9c-0.8,0.4-1.7,0.4-2.6,0.3c-1.1-0.2-2.1-0.7-2.9-1.4l1.2-1.4
			c0.5,0.5,1.1,1,1.8,1.1c0.5,0.1,1.1,0,1.2-0.6c0.1-0.5-0.7-0.9-1.2-1.1c-1.3-0.6-2.2-1.1-1.9-2.5c0.3-1.5,1.7-2.3,3.4-2
			c0.9,0.2,1.9,0.6,2.6,1.1L200.8,23.8z"/>
		<polygon class="st3" points="205.8,30.5 203.5,30.1 204.7,24.2 202.9,23.9 203.2,22.2 209.1,23.4 208.8,25.1 207,24.7 		"/>
		<polygon class="st3" points="212.2,25.9 211.9,27.1 214.4,27.7 214,29.3 211.5,28.8 211.2,30 213.9,30.7 213.5,32.3 208.7,31.2 
			210.4,23.7 215.2,24.8 214.8,26.5 		"/>
		<path class="st3" d="M217.4,25.4l2.1,0.6l-1.3,4.9l-2.1-0.6L217.4,25.4z M218.1,32.5c-0.2,0.6-0.9,1-1.6,0.8
			c-0.7-0.2-1.2-0.9-1-1.5c0.2-0.6,0.9-1,1.6-0.8C217.8,31.2,218.2,31.8,218.1,32.5z"/>
	</g>
	<path class="st0" d="M106.1,33.7l-0.1,0l-0.1,0c-0.4,0.1-0.7,0.3-1.1,0.4l0,0l0,0c-0.6,0.3-1.2,0.6-1.7,0.9l-0.1,0.1l0,0
		c0,0-0.1,0-0.1,0.1c-0.2,0.1-0.5,0.5-0.8,0.5l0,0.2c-1.8,1.2-3.3,2.6-4.4,4.3c-0.2,0.1-0.2,0.9-0.2,0.6l0.2,0.3l0.4-0.3l-0.1,0
		c2.5-3.7,7.5-4.7,11.6-4.3l0.1,0l0,0c0.1,0,0.3,0,0.4,0c3.7,0.3,7.7,2.2,10.6,5c0,0.4,0.6,0.6,0.7,1c2.7,3.1,4.6,7.1,6,10.9
		c0.1,0.3,0,0.7,0.3,0.9c0.7,2.1,1.2,4.8,1.6,7.1c-0.1-0.4,0.1,0.6,0.1,0.6c0,0.5,0.1,1.1,0.1,1.6l0,0.1l0,0.1
		c0.2,1.8,0.5,3.6,0.5,5.4l-0.1,0.5c0.1,0.3,0,0.7-0.2,1l0,0l0,0l0,0l0,0c-0.5,0.8-1.5,1.6-1,2.7c0.2,0.1,0.5,0.2,0.7,0.2l0,0l0,0
		c0,0,0,0,0,0h0l0,0c0.6,0,1.1-0.3,1.6-0.8c0.4-1.2,0.8-2.4,1.5-3.7l0.2,0c1.5-2.9,3.5-5.5,5.7-7.9c0.2-0.4,3.1-3.5,3.1-3.5
		s3-3.5,4.6-4.3c-0.1,0.5-3.1,7-3.5,9.4c-0.5,0.8-0.8,1.8-1.1,2.8c0,0,0,0.1,0,0.1l0,0.1l0,0.1c-0.4,1.7-1.3,3.5-1,5.4
		c0,0.8,0.7,0.9,1,1.2c0.5,0,1,0.2,1.5-0.2c0.1,0.1,0.1,0.1,0.2,0.1l0,0h0c0,0,0.1,0,0.1,0c0.3-0.1,0.7-0.5,1.1-0.4l-0.2,0.2h0.1v0
		c0,0,0,0,0-0.1c0,0,0-0.1,0-0.1c0,0,0-0.1,0.1-0.1c0.1-0.1,0.4-0.2,0.5-0.4l0.1,0.3l0.2-0.4l0.3,0.1c-0.8,1.1-1.6,1.7-2.6,2.7
		c-0.3,0.3-0.2,0.7-0.7,0.9l0.2,0.2l0.1-0.1c0.2,0.4,0.5-0.2,0.8,0.3c2.6-3.1,5.3-6,8.5-8.8c0.2-0.3,0-0.8-0.3-1.1c0,0,0,0,0,0l0,0
		l0,0c-1.2,0.7-2,2-3.1,2.7l0,0l0,0c0,0-0.1,0.1-0.1,0.1l0,0l0,0c-0.5,0.3-1,0.4-1.7,0.4c-0.4-0.1-0.7-0.5-0.9-0.9c0,0,0,0,0,0
		c-0.3-1.8,0.3-5.6,0.4-6.2c0-0.1,0-0.1,0-0.1c0.4-2.4,1.4-4.8,2.1-7c0.6-1.4,1.1-2.9,1.9-4.1c0.7-1.9,3.7-2.3,4.5-4.1
		c0-0.6,0.6-1.2-0.2-1.6c-0.6-0.3-1.3,0-1.8,0.1c-2.2,1.1-3.5,3.2-4.6,5.3c-5.4,4.3-10.4,9.8-14.3,15.4l-0.3,0.7
		c-0.4-0.2-1-1.1-0.9-1.6c-0.1-1-0.1-2.7-0.1-2.7c-0.2-1.7-0.3-3.6-0.5-5.2h0c-0.8-6.4-2.7-12.2-5.9-17.3c-0.1,0-0.2,0-0.2,0
		c0,0,0,0,0,0c-0.2,0-0.3,0-0.5-0.1c-0.2,0-0.3-0.1-0.5-0.1l0.1-0.1l-0.3,0.1c0.1-0.2,0.4-0.7,0.7-0.8c-1.9-2.4-4.3-4.3-7.1-5.2
		c-1.3-0.8-3-1-4.5-1.2l-1.1,0C110.3,32.5,108.2,33,106.1,33.7z M182.2,40.6c-1.5,0.5-3.2,0.7-4.4,1.8c0.3,0.1-0.2,0.4,0.2,0.5
		c1.1,0.1,2.3-0.7,3.3,0.2c1.5,2.2,0.3,4.7-0.2,6.8l0.4,0c0.1,0.2,0.3,0.2,0.3,0.5c-0.1,0.1,0.1,0.3-0.1,0.2l0.1,0.1
		c-0.1,0.3-0.5,0.1-0.6,0.3l-0.2-0.1l0.1,0.1l-0.2,0.2c-1.1,3.6-2.4,7.5-3.7,11l0,0.1l-0.1,0.2l-0.1,0.2l0,0.1l-0.1,0.2l0,0.1l0,0.1
		l0,0.1l0,0.1l0,0.1l0,0l-0.1,0.2c-0.2,0.5-0.4,1-0.6,1.4c-0.3,0.3-0.2,0.9-0.5,1.2c-0.8,2.1-1.6,4.3-2.7,6.5l0.1,0.1
		c0.6-0.1,1.3-0.5,2-0.6c0.1-0.6,0.7,0.1,0.8-0.5c0.3-0.1,1-0.5,1.1-0.4L177,71c0.5-0.2,0.5,0.2,0.6,0.5c1.4,1.5,3.3,0.6,4.9,0.2
		l0,0l0.1,0c0.7-0.6,1.8-0.7,2.4-1.3c2.3-1.3,4.1-3,5.6-5.3c0.7-1.1,2-2.6,2.3-4c0.8-1.2,0.9-2.6,1.3-4c-0.2,0.2-0.7-0.4-0.8,0.1
		l-0.1-0.3h-0.1l-0.2-0.3c0.5-0.6,1.1,0.2,1.3-0.7c0.1-1.1-0.1-1.7-0.4-2.7c-0.4-0.4-1.1-0.6-1.7-0.5c-1.8,0.5-3.6,1-5.2,2.1V55
		c-2.1,1.3-4.3,3.4-6.2,4.9l0.6-2.2c0.4-0.5,0.6-1.2,0.7-1.8l-0.1,0c0.3-0.2,0.1-0.7,0.4-0.9c0.5-1.8,1.4-3.7,1.9-5.6
		c0.8-1.4,1.4-3.4,1.9-5c0.5-1.3,1.2-2.8,0.6-4.1c-0.3-0.4-0.9-0.4-1.2-0.5C184.6,40,183.2,40.2,182.2,40.6z M189.2,56.1l0.2,0.2
		c0.9,2,0.1,4.1-0.7,6.3c-1,2.3-1.7,5-4.3,6.6c-0.9,0.9-2.3,1.1-3.5,1.5c-0.4,0-1,0.1-1.3,0v0.1c-0.1-0.2-0.5,0.2-0.6-0.2h-0.1
		l0.1-0.1c-0.3,0.1-0.9,0-1.3,0c-0.2-0.9,0.5-1.5,0.4-2.1c0.7-2.8,2.1-5.8,4-7.8l0.1,0c1.5-1.9,3.9-3.9,6.2-4.6
		C188.7,55.8,189,56.2,189.2,56.1z M176.9,71.3L176.9,71.3C176.9,71.3,176.9,71.3,176.9,71.3L176.9,71.3z M230.6,42.3
		c-4.4,1.2-8.3,5.1-11.2,8.6l0.1,0.1c-0.5,0.5-0.6,1.1-1.1,1.4c-1.1,1.3-2.2,3.7-3.3,5.3l0-0.1l-0.2,0.6l-0.2-0.1
		c-0.2,1.2-1.4,2.6-1.5,3.5c0.4-0.1,0.6,0.2,0.8,0.4l-0.1,0.1c-1.4-0.6-1.3,1.5-2,2.1l0.1,0.1c-0.5,1.4-0.8,2.4-1.2,3.9
		c0.1,0.4-0.2,1,0,1.4c-0.4,0.6,0.3,0.7-0.1,1.2c0.4,1,0.8,1.5,1.8,1.5c0.9,0.2,1.7-0.4,2.5-0.7c0.1-0.2,0.6-0.4,0.8-0.5
		c-0.5,0.8-1.2,1.4-1.7,2.1l0,0l0,0c-0.1,0.1-0.2,0.2-0.2,0.3c-0.7,0.3,0.3,0.7,0.1,1c0.2,0.1,0.3-0.2,0.5-0.2
		c2.6-3.3,6-6.5,9.1-9.3c0.7-0.6,1.6-1.1,2.1-2l-0.2-0.2l0.1-0.2c-0.7-0.2-1.2,0.5-1.8,0.7l-1.6,1.6l-0.3,0l0.1,0.1
		c-0.7,0.6-1.5,1.7-2.3,2l0.1,0.1c-1.1,0.6-1.9,1.2-3.2,1.1c-0.6-0.1-0.9-0.6-1.2-1.1c-0.2-3.6,1.7-6.4,3-9.7
		c2.2-4.7,4.8-9.4,9.1-12.4c1.7-1.2,3.6-2.4,5.8-2.1c1.7,0,3.2,1.1,4.2,2.5c0,0.3,0.2,0.2,0.4,0.3c0-0.1,0-0.1,0-0.1l0,0l0,0l0,0
		l0,0l0,0c0-0.1,0.1-0.1,0.1-0.1l0,0l0,0c0.1,0,0.2-0.1,0.2-0.2c0.3-0.7,0.3-1.7,0.2-2.4C236.3,40.8,233.1,41.5,230.6,42.3z
		 M43.4,44.1c-2.3,0.6-4.2,1.3-6.3,1.9c-0.6,0.7-1.9,0.6-2.3,1.3l-0.2-0.1c-2,1.3-3.4,2.5-5.1,4.1c-3.9,4.6-6.5,10.2-8,15.8
		c0.3,0.4,0.3,0.3,0.9,0.6L22.2,68l0,0.1c-0.3,0.2-0.6,0.6-1,0.6c-0.2,0.6-0.2,1.5,0.1,2.1l-0.1,0.1c0.4,0.5,0.6,0.9,1.1,1.3
		l0.4,0.2c1.5,0.1,2.9-0.8,4.5-1.4c5.3-2.6,10-7.4,13.8-11.5c0.1,0.3-0.1,0.7-0.3,1c-0.2,0.5-0.4,1-0.5,1.5
		c-0.4,0.8-0.4,1.6-0.7,2.3c0.1,0.5-0.5,1-0.3,1.4c-0.4,0.5-0.3,1.3-0.6,1.8c0,1.3-0.8,2.6-0.3,3.8c-0.3,0.5,0.4,0.5,0.5,1
		c0.9,0.6,1.7-0.2,2.5-0.7c0.1,0.2,0.5-0.1,0.4,0.2c-0.4,0.3-0.7,0.6-0.8,0.9c-0.6,0.8-1.5,1.3-1.8,2.2c1.3,0.7,1.9-1.5,2.9-2
		c2.5-3.4,6.1-6.1,9.1-8.5c-0.3-0.4,0.5-0.3,0.4-0.7c0.1-0.2-0.4-0.5-0.1-0.7h-0.2c-1.4,0.6-2.3,1.7-3.6,2.6c-1.1,1-2.5,2.6-4.2,3
		c-0.3-0.1-0.6-0.5-0.6-0.7c-0.8-4,1.2-7.7,2.1-11.4c1.8-4.2,3.2-9.2,7.3-12.2l0-0.4l-0.7,0C50,45,48,45.9,46.9,47.6
		c0-0.8,0.5-1.8,0-2.5L46,44.3C45.2,44.1,44.1,44.1,43.4,44.1z M40.7,46.5c1.5-0.1,3.4,0,4.1,1.6c0.2,2.4-1.5,4.4-2.3,6.4
		c-3,5.4-7.2,10.2-12.5,13.5c-1,0.3-2.2,0.8-3.3,0.4c-1.1-1.1-0.5-2.6-0.4-3.8c-0.4-0.2,0.2-0.1,0.1-0.4c0.8-4.3,2.9-8.5,5.4-12
		c0.9-1.5,2.5-2.5,3.7-3.7C37,47.3,38.9,46.2,40.7,46.5z M84.5,47.4c-0.2,0.7-0.2,2.3,0,2.3c0.2,0-0.1-2.1,2.6-3.2
		c0.3-0.1,2-0.9,5.6,0c8.2,2.2,11.4,5.2,11.4,5.2c-0.6,1.1-1.8,2.9-3,6.1c-0.9,2.4-1.9,4.2-2.5,6.4c-0.2,0.4-0.7,2.2-0.9,2.9
		l0.5-0.1c0.2,0.1-0.1,1.4-0.7,1.2c0,1.3-0.2,2.6,0.8,3.4l1.1,0.5c0.9,0.5,1.9,0,2.8,0.1c3.9-1.9,7.8-4.9,10.1-8.9l-0.1-0.1l0.2-0.1
		c0.3-0.9,0.3-1.5-0.1-2.4c-0.3-0.1-0.4,0-0.7,0.2c-0.2,1-0.9,2-1.3,3c-0.1,0.2-0.2,0.6-0.3,0.6c-0.9,2-2.6,3.5-4.5,4.5
		c-0.8,0-1.4,0.3-2.1-0.1c-1.4-0.7-1.4-2.4-1.4-3.8c0.8-4.4,2.4-8.2,4.4-11.9c1.5,0.9,3.1,1.8,4.5,2.9c1.2,0.5,2.2,1.6,3.2,2.4
		c0.9,0.6,1.6,1.4,2.6,1.2c0-0.3,0.3-0.7,0.1-1.1c-1.5-1.8-3.1-3.1-4.9-4.4c0,0-0.6,0.1-0.9,0.2c-1.7-1.1-2.4-1.4-4-2.7
		c1.2-1.6,2.5-3.3,3.9-4.5c0-0.2,0.1-0.3-0.1-0.4c-0.4,0-1,0-1.4,0.3c-1.6,0.3-3.6,2.5-3.6,2.5c-0.3,0.3-0.6,0.8-0.8,0.7L98.7,47
		c-3.9-1.8-5.1-2.1-8.1-2.5C89.8,44.4,85.6,44.1,84.5,47.4z M230.6,49.7l-0.1-0.2c-0.7,0.7-1.6,1-2.5,1.5c-0.1,0.6-0.3,1.6-0.8,2
		c-0.5,0.9-1.3,1.4-1.8,2.1c0.1,0.4,0.5,0.1,0.8,0.2c2.2-1.6,4.9-3.2,6-6l-0.1-0.4C231.6,49.3,231,49.4,230.6,49.7z M170.4,54
		L170.4,54c-0.1-0.5-0.1-1.2-0.6-1.4c-0.7-1-2.3-0.5-3.2-0.4c-5.1,1.6-9.1,6.1-12.1,10.6l0.1,0.1c-0.4,0.4-0.7,0.9-1,1.4
		c-0.2,0.2-0.5,0.5-0.4,0.7c-0.5,0.9-1,2.2-1.1,3l0.6,0.1c0.1,0.2,0.1,0.4-0.1,0.7c-0.4,0-0.6,0.1-0.8,0.2c-0.2,0.4-0.1,1.1,0,1.5
		l-0.1,0.1l0,1c0.2,0.6,0.8,0.8,1.4,0.9c5.3-0.4,8.3-5.2,11.9-8.6c-0.3,1.4-1,2.9-1.2,4.3c-0.2,1.3-0.6,2.3,0.2,3.5
		c0.4,0.3,0.8,0.5,1.2,0.3l0-0.2l0.3,0.2c1.3,0,1.8-1,2.7-1.7c0,0.1,0,0.1-0.1,0.2l0,0l0,0l0,0l0,0l0,0l0,0l0,0
		c-0.2,0.3-0.4,0.6-0.7,0.9l0.1,0.1c-0.3,0.2-0.6,0.5-0.9,0.8c0.2-0.2,0.4-0.4,0.6-0.6c-0.6,0.5-1.1,1.1-1.6,1.9l0,0.1l0,0.1
		c-0.2,0.3-0.4,0.7-0.5,1.1c0.2-0.3,0.4,0.2,0.7,0c0,0,0,0,0,0l0,0l0,0c0.2-0.1,0.6-0.1,0.7-0.5l0.1,0.1l-0.1-0.2
		c1.2-1.3,1.9-2.7,3.1-3.9c1.5-2.4,4.6-4.3,5.9-6.5l0.1,0.1l0.2-0.2l-0.2-0.3c-0.1-0.1-0.3,0.2-0.3-0.1c-2,1.4-3.4,3.1-5.2,4.9
		c-0.4,0.2-0.8,0.6-1.2,0.6c-0.3-0.1-0.6-0.3-0.8-0.6c-0.6-1.8-0.2-4.2,0.2-6c-0.4-0.1-0.8-0.3-0.8-0.6l0.2,0.1l-0.2-0.1
		c0.5,0.2,0.2-0.3,0.7-0.3l0.1,1.1l0.3,0l-0.1-1.2l0.2,0l0-0.3c0,0,0-0.1,0-0.1l0-0.1l0.1-0.1c0.7-1.6,1.5-3.3,2.5-4.9l0.1-0.1
		l0.1-0.1c0.9-1.4,1.9-2.6,3-3.7l0-0.2C173.1,52.1,172,53.1,170.4,54z M168,54.6c0.7,1-0.3,2-0.7,3c-1.8,3.7-4.1,7.1-7.5,9.9
		c-0.8,0.6-2,1.4-3,0.7c-0.7-0.3-0.7-1.4-0.8-1.9l0.1-0.1c0.2-2,1.3-3.8,2-5.6c1.7-2.5,3.9-5.8,7-6.6
		C166.4,53.9,167.2,54.2,168,54.6z M68.5,53.4c-0.1,0.2-0.1,0.5-0.4,0.4c0.1,0.2,0,0.3-0.1,0.5l0,0l0,0c0-0.1,0-0.1,0.1-0.2
		c-0.1,0.3-0.2,0.5-0.3,0.8c-1.2,3.3-3.3,6.4-5.7,9.1c-2,1.9-3.9,4.2-6.6,4.2c0,0-0.1,0-0.1,0c-0.9-0.4-0.7-1.1-0.7-1.8
		c0-0.1,0-0.2,0-0.3c0-0.1,0-0.2,0-0.3c0.6-2.1,1.5-4.1,2.3-6.1c0.4-0.8,0.6-1.7,1.2-2.4c0,0,0-0.1,0-0.1c0.2-0.9,0.8-1.9,1.1-2.9
		l0,0l0,0c0.1-0.2,0.1-0.3,0.1-0.5l0,0l0,0l0,0l0,0l0,0l0,0l0,0l0,0l0,0c0,0,0,0,0,0l0,0l0,0l0,0l0,0l0,0l0,0c0,0,0,0,0,0
		c0,0,0,0,0,0l0,0c0,0,0,0,0,0c0,0,0,0,0,0c0,0,0,0,0,0c0,0,0,0,0,0l0,0c0,0,0,0,0,0c0,0,0,0,0,0c0,0,0,0,0,0c0-0.1,0-0.1,0-0.2
		c-0.1-0.6-0.7-0.2-1-0.7c-0.9,0.1-1.9,0.6-2.9,0.8c-0.4,0.4-0.9,0.5-1.5,0.5c-0.9,0.7-2.6,0.6-3,1.8c0.5,0.4,0.8-0.3,1.3-0.2
		c0.5-0.2,0.9-0.2,1.5-0.1c0.8,0.2,0.5,1.3,0.6,1.8l-0.1,0.1l-0.1,0.6h-0.1c-0.2,0.6,0,1-0.4,1.5c0.2,0.4,0.7,0.1,1,0.5
		c-0.5,0.4-0.9,0.4-1.4,1c-0.4,1.1-0.8,2.2-1.3,3.3c-0.8,2.4-2.8,5.2-2,7.4c0.3,0.4,0.7,0.8,1.2,0.7c0.5,0.2,1.2-0.2,1.6-0.1
		c4.1-1.9,7.7-5.2,10.9-8.3l0.1,0.1c-0.5,1.8-1.1,3.3-1.5,5.2l0.1,0.1c-0.3,0.7-0.1,1.6-0.2,2.4c0,0,0,0,0,0l0,0l0,0
		c0,0,0,0,0.1,0.1l0,0l0,0l0,0c0,0,0,0,0,0l0,0l0,0c0,0,0,0,0,0l0,0c0,0,0,0,0,0l0,0l0,0l0,0l0,0l0,0c0.2,0.3,0.2,0.8,0.6,0.8
		c0.1,0.1,0.3,0.2,0.4,0.3l0,0l0,0l0,0l0,0c0.4,0.1,0.9,0.1,1.3-0.1c0.6-0.2,1.1-0.5,1.6-0.7l0.1,0.1c-0.3,0.5-0.9,1.1-1.2,1.4
		c0.1,0.3-0.2,0.4-0.3,0.5c-0.1,0.3-0.5,0.7-0.1,1c0.1-0.3,0.4-0.1,0.5,0c2.2-2.7,4.8-5.7,7.2-8.3c0.4-0.2,0.5-0.3,0.8-0.8
		c0-0.4,0.4-0.7-0.1-1c-1.9,1.4-3.2,3-5,4.8c-0.6,0.2-1.2,0-1.5-0.6c-0.3-0.7-0.4-1.4-0.4-2.2c0-0.3,0-0.7,0.1-1
		c0.1-0.9,0.3-1.8,0.4-2.6l-0.6-0.5l0.1-0.2c0.6,0.1,0.8-0.3,1-0.7c0.2-0.5,0.2-1.3,0.5-1.6c1-2.9,2.2-5.4,3.9-7.7l0,0
		c0-0.1,0-0.2-0.1-0.2l0,0c-0.1-0.1-0.3,0-0.5-0.1C70.8,52.5,69.6,53.2,68.5,53.4z M198.4,58.7c-1.2,0.2-2.5,0.2-3.3,1l0.4,0.4
		c0.7-0.2,1.4-0.2,2-0.3c-0.3,0.8-1,1.4-1.1,2.2c-1.2,2.7-2.2,4.8-2.2,7.7c0.4-0.2,1.1-0.2,1.2,0l-0.2,0.2c0.4,0.8-0.7,0.3-0.9,0.6
		c0,0.6,0.4,1.3,0.9,1.5l-0.1,0l0.9,0.7c0.6,0,1.1,0.2,1.7,0.3l0-0.2c0.9-0.2,2.1-0.4,3-0.9c3.6-2.2,7.6-5.2,7.9-9.4l-0.3,0l0.1-0.3
		c-0.3-0.2-0.2-0.7-0.6-0.6c-0.6,2.1-1.5,4-3,5.7l0.1,0.1c-1.4,1.3-2.9,2.6-5.1,1.8c-1.6-1.9-1.2-4.3-0.5-6.6
		c0.5-1.1,0.6-2.4,1.4-3.4c1.6-0.1,3.4-0.3,5-0.5c0.2-0.1,0.4,0.2,0.5-0.1c1.8,0,3.5-0.1,5.1-0.3l0.1-0.1c0.4,0.1,0.6-0.4,0.7-0.8
		c-0.5-0.2-1.3,0.1-2.2-0.1c-0.5-0.1-0.9,0.4-1.2,0.1c-0.5,0.1-0.9,0.1-1.4,0c1.2-1.1,2.5-2.3,2.5-4.1c-0.5-1-1.8-1-2.6-1
		C203.7,53.2,200.5,55.6,198.4,58.7z M204.5,55.4c0.6,0.4,0.4,1,0.5,1.6c-0.4,1.6-2.6,0.7-3.7,1.2C202.2,57.1,202.7,55.1,204.5,55.4
		z M81.1,52.5L81.1,52.5L81.1,52.5c-0.4,0-0.7,0.1-1,0.2c-0.7-0.2-1.3,0.6-2,0.5c-1,0.8-2.4,1.3-3.7,2.1c-0.1,0.2-0.8,0.2-0.6,0.6
		c0.2,0,0.1,0.2,0.2,0.3l0,0l0,0c0,0,0.1,0.1,0.2,0.1h0c0.7-0.3,1.5-0.7,2.3-0.8l0.1,0l0,0c-0.3,0-0.5,0.1-0.8,0.2l-0.1,0l0,0
		c0.7-0.2,1.4-0.3,2-0.1c0.3,0.5,0.3,1,0.2,1.5l0,0l0,0c0,0,0,0.1,0,0.1l0,0l0,0c-0.1,0.6-0.2,1.2-0.1,1.7c0.1,0.3-0.5,0.8-0.3,0.9
		c-0.1,0.1-0.1,0.7-0.4,0.6c0,0.5-0.2,0.9-0.3,1.4l0.6,0.2l-0.1,0.3l-0.5,0c-0.1,0.1-0.2,0.2-0.3,0.2l0,0l0,0l0,0
		c-0.1,0.1-0.2,0.2-0.1,0.5c-0.5,0.5-0.4,1.8-1.1,2.1c-0.9,2.1-2,4.7-3.4,6.5l0.2,0.2c0.1,0,0.1-0.1,0.2-0.1c1.5-0.7,3.1-1.1,4.3-2
		c1.9-5.7,5.5-11.6,10.8-14.4l0.5-0.2l0.1,0c0.5,0,1.1,0,1.4,0.5c0,0.1,0,0.2,0,0.3l0,0l0,0l0,0l0,0c0.1,0.7,0,1.6-0.5,2.2
		c0.3,0.7-0.7,1.4-0.1,1.9v0l0,0l0,0c0,0.3-0.3,0.4-0.4,0.6L88.3,61c-0.2,0.1-0.5,0.4-0.4,0.7c-0.8,1.5-1.2,2.9-1.8,4.3
		c0,0.1,0,0.2,0,0.3l0,0l0,0c-0.4,1.6-1.6,3.2-1.1,4.9c0,0,0,0,0.1,0l0,0l0,0c0.1,0.1,0.2,0.2,0.2,0.3l0,0l0,0c0,0,0,0,0,0l0,0l0,0
		c0.1,0.2,0.3,0.3,0.6,0.2c1.1,0.7,2.1-0.4,3.1-0.6c0,0,0.1,0,0.1,0c-0.8,1-1.7,2.1-2.4,3.3l0.2-0.1c0.1,0.7,0.7,0.1,0.9,0.1
		c1.9-2.4,4.1-5.1,6.3-7.3c0.7-1,2.9-1.8,2.1-3.1c-1.1,0.8-2,1.7-3,2.7c-0.1,0.1-0.2,0.3-0.3,0.4l0,0l0,0c-0.6,0.7-1.2,1.6-2,2l0,0
		l0,0l0,0l0,0c-0.3,0.1-0.6,0.2-0.9,0.1c-0.2-0.2-0.5-0.4-0.3-0.7h-0.1c-0.2-0.1,0.2-0.3-0.1-0.4c0.1-4.9,3.1-8.6,4.5-13.1
		c0.2-0.5,0.3-1,0.1-1.5c0-0.1-0.1-0.2-0.2-0.3c-0.4-0.4-1-0.4-1.5-0.5c-4.5,0.3-8.4,3.9-11.6,7.1c0.1-0.5,0.4-1.1,0.5-1.6
		c0.7-1.7,1.5-3.4,1.4-5.1c-0.3-0.4-0.8-0.5-1.3-0.5C81.2,52.5,81.2,52.5,81.1,52.5z M76.5,55.5L76.5,55.5L76.5,55.5
		C76.5,55.5,76.6,55.5,76.5,55.5C76.6,55.5,76.5,55.5,76.5,55.5z M122.8,55.5c-0.3,1-0.8,2-1.2,3c0.5,0.1,0.6-0.6,1-0.4
		c-2.7,6.6-5.7,13.9-9.6,19.9c-1.8,2.7-3.9,5.2-5.3,6.6c-0.6-0.2-2.7-1.8-5-2.8c0,0-6.5-3.4-12.3-3.6c-2.3-0.1-5.6,0.3-8.4,2.6
		c-1.5,1.1-2.6,2.8-3.1,4.7c0.3,0.3,0.6,0.8,0.2,1.2c-0.3,2,1.8,4.8,3.5,5.7c5,2.7,11.1,2.4,17.2-0.4c3.4-1.6,5.5-3.6,8-6
		c0,0,13,9.1,24.9,13.7c13.7,5.3,22.5,2.9,24.3,2.3l0.1-0.4c0.5-0.3,0.1-0.5,0.2-0.6c0,0,0.6,0.2,0.7,0.5c2.6-1.2,5.5-3.4,6.9-6.7
		l-0.3-0.6l0.7-0.1c1-2.9,1.4-6.4,0.7-9.6c-0.3-0.6-0.4-1.4-1-1.7l-0.1,0.3c0.2,1.5,0.4,3,0.1,4.4c-1.7,7.1-5.9,10.1-8.4,11.1
		c-2.2,0.9-4.2,1.5-6.3,1.9c-5,0.9-14.1-1.2-18.9-3c-13.4-4.9-21.9-11.8-23-12.4c3.5-3.6,6.3-7.7,8.7-12c2.4-4.7,4.6-9.2,6.6-14.1
		c0.3-1,0.8-1.9,1-3c0.2,0,0.1-0.2,0.1-0.3c0.4-0.5,0.5-1.2,0.7-1.9c-0.2-0.3-0.4-0.7-0.7-0.8C123.5,52.9,123.3,54.5,122.8,55.5z
		 M99.1,81.1c4.5,1.6,7.8,4.1,7.9,4.3c-0.6,1-7.9,7.4-14.8,7.2c-9.1-0.3-10.5-5.6-9.3-8.3C86.3,76.4,96.1,80,99.1,81.1z M236.3,53.3
		L236.3,53.3L236.3,53.3c-0.8,0.3-1.4,0.7-2.1,1c-0.2,0.2-0.3-0.2-0.3,0.2c-1.5,0.9-2.4,2.1-3.5,3.5c0.2,0.3-0.3,0.6-0.2,1
		c-0.8,1.4-0.1,3.4,0.5,4.9c0.5,0.8,0.8,1.4,1.2,2.1c-0.2,0.4,0.4,0.4,0.3,0.7l0.1,0c0.1,0.5,0.5,1.5,0.2,2c-0.3,1.1-1.1,1.6-2.2,2
		c-0.1,0-0.2,0-0.3,0l0,0l0,0c-0.2,0-0.4,0.1-0.6,0.1c0.1,0,0.2,0,0.4,0c-0.2,0-0.5,0.1-0.6,0c-0.1,0-0.3,0-0.4,0l0,0l0,0
		c-0.2,0-0.3,0-0.5,0c-0.9-0.1-1.8-0.3-2.6-0.7l-0.4,0.3c-0.3,0.7-0.4,1.3-0.1,2l0,0l0,0l0,0l0,0c0.1,0.2,0.3,0.5,0.5,0.8
		c0.6,0.4,0.5-0.6,0.9-0.6l0.1,0.1c-0.1,0.3,0.2,0.7-0.2,0.9c0.4,0.3,0.7,0,1,0.4c0.6-0.5,1.3-0.3,1.8-0.5c0.1-0.3,0.4-0.1,0.5-0.4
		c2.6-1,4.1-2.7,5.7-5.2c0.3-0.7,0.5-1.6,0.5-2.5c0-0.1,0-0.2,0-0.2c0-0.2,0-0.4,0-0.6c0-0.1,0-0.2,0-0.3c0-0.2-0.1-0.3-0.1-0.5
		c-0.1-0.5-0.3-1-0.6-1.4l-0.6,0.7l-0.1-0.2l-0.2-0.1c0.2-0.5,0.7-0.5,0.7-1c-0.3-0.4-0.4-1.3-0.7-1.8c-0.1-0.2-0.1-0.4-0.2-0.7
		c-0.2-1.2-0.2-2.6,0.8-3.4c0,0,0.1,0,0.1-0.1c0.1-0.1,0.3-0.2,0.5-0.2c0,0,0,0,0,0c0.9-0.2,2,0.4,2.8,0.3c1,0,1.2-1.2,1.2-1.9
		l-0.6-0.7C238,52.8,237.1,53,236.3,53.3z"/>
	<path class="st4" d="M129.8,4.3C80.2,5,52.4,9.9,5.8,26.5l-0.5,0.2L19,93.5l0.3,0.1c22.9,9.9,36.7,14,61.2,18.4
		c19,3.4,32.5,3.9,49.2,4.2h0c16.8-0.3,30.2-0.9,49.2-4.3c24.4-4.3,38.2-8.5,61.1-18.3l0.3-0.1l13.8-66.8l-0.5-0.2
		C207.1,9.9,179.4,5,129.8,4.3L129.8,4.3z M252.6,27.5l-13.4,65c-22.6,9.7-36.2,13.8-60.5,18.1c-18.9,3.4-32.2,4-48.9,4.3
		c-16.8-0.3-30.1-0.9-49-4.2c-24.3-4.3-37.9-8.4-60.6-18.1l-13.3-65C53,11.1,80.4,6.3,129.8,5.6C179.2,6.3,206.5,11.1,252.6,27.5z"
		/>
</g>
</svg>
